<svg xmlns="http://www.w3.org/2000/svg" width="128.037" height="89.647" viewBox="0 0 128.037 89.647">
  <path id="youtube" d="M125.4,7.946A16.04,16.04,0,0,0,114.115-3.341c-10.019-2.741-50.1-2.741-50.1-2.741s-40.076,0-50.1,2.637A16.366,16.366,0,0,0,2.637,7.946C0,17.964,0,38.741,0,38.741s0,20.882,2.637,30.8A16.043,16.043,0,0,0,13.923,80.822c10.124,2.742,50.1,2.742,50.1,2.742s40.076,0,50.1-2.637A16.041,16.041,0,0,0,125.4,69.643c2.636-10.019,2.636-30.8,2.636-30.8s.105-20.883-2.637-30.9ZM51.258,57.936V19.547L84.585,38.741Zm0,0" transform="translate(-0.001 6.082)" fill="#f4f4f4"/>
</svg>
